<svg xmlns="http://www.w3.org/2000/svg" viewBox="3.6999999999999993 56.5 727.5999999999999 761.7">
  <defs>
    <filter id="glow">
      <feGaussianBlur stdDeviation="3" result="blur"/>
      <feMerge>
        <feMergeNode in="blur"/>
        <feMergeNode in="SourceGraphic"/>
      </feMerge>
    </filter>
  </defs>
  <!-- Africa continent from Natural Earth data -->
  <path d="M 539.0,459.5 L 540.7,460.6 L 577.0,481.0 L 577.7,486.8 L 592.0,496.8 L 587.4,509.1 L 588.0,514.8 L 594.4,518.4 L 594.7,521.0 L 591.9,527.0 L 592.5,530.1 L 591.9,534.9 L 595.4,541.1 L 599.5,551.0 L 603.2,553.2 L 603.2,553.2 L 595.2,559.0 L 584.3,562.9 L 578.3,562.7 L 574.7,565.7 L 567.8,565.9 L 565.1,567.2 L 553.1,564.4 L 545.6,565.2 L 542.8,551.6 L 539.4,546.9 L 537.4,544.2 L 527.6,542.3 L 521.9,539.3 L 515.6,537.6 L 511.6,535.9 L 507.4,533.4 L 507.4,533.4 L 502.0,520.8 L 496.2,515.2 L 494.2,509.4 L 495.2,504.2 L 493.4,495.0 L 497.5,494.5 L 501.2,490.9 L 505.1,485.7 L 507.5,483.6 L 507.4,480.3 L 505.3,478.1 L 504.7,474.1 L 504.7,474.1 L 507.6,472.9 L 508.2,467.0 L 504.2,461.3 L 507.7,460.1 L 518.7,460.3 L 539.0,459.5 Z M 113.3,173.4 L 113.3,174.1 L 113.2,176.0 L 113.1,191.2 L 80.3,190.7 L 80.6,216.3 L 71.3,217.2 L 68.8,222.3 L 70.7,236.7 L 31.5,236.7 L 29.4,240.0 L 29.8,235.8 L 30.0,235.8 L 52.5,235.0 L 53.7,231.4 L 57.8,226.9 L 61.1,213.1 L 75.0,202.3 L 79.7,189.7 L 82.8,189.0 L 86.1,181.2 L 94.5,180.1 L 98.1,181.4 L 102.6,181.4 L 105.9,179.1 L 112.1,178.8 L 111.8,173.4 L 113.3,173.4 Z M 493.4,495.0 L 495.2,504.2 L 494.2,509.4 L 496.2,515.2 L 502.0,520.8 L 507.4,533.4 L 507.4,533.4 L 503.5,532.4 L 490.0,534.1 L 487.3,535.3 L 484.5,541.6 L 486.7,546.1 L 485.0,557.9 L 483.7,567.9 L 486.4,569.7 L 493.4,573.6 L 496.2,571.8 L 497.0,582.6 L 489.3,582.5 L 485.2,577.0 L 481.6,572.7 L 473.9,571.3 L 471.6,566.1 L 465.5,569.2 L 457.5,567.8 L 454.2,563.3 L 447.8,562.4 L 443.1,562.6 L 442.6,559.5 L 439.1,559.3 L 434.6,558.7 L 428.4,560.2 L 424.0,559.9 L 421.6,560.8 L 422.1,548.9 L 418.8,545.2 L 418.0,539.1 L 419.5,533.1 L 417.5,529.2 L 417.3,522.9 L 405.1,523.0 L 406.0,519.4 L 400.9,519.4 L 400.4,521.2 L 394.2,521.6 L 391.7,527.4 L 390.2,529.9 L 384.6,528.5 L 381.3,529.9 L 374.7,530.7 L 370.9,525.5 L 368.6,522.2 L 365.7,516.2 L 363.3,508.8 L 333.8,508.6 L 330.2,509.8 L 327.4,509.7 L 323.2,511.0 L 321.8,507.9 L 324.4,506.8 L 324.7,502.5 L 326.3,499.9 L 330.0,497.8 L 332.6,498.8 L 336.0,495.0 L 341.4,495.1 L 342.1,497.9 L 345.8,499.7 L 351.7,493.4 L 357.5,488.6 L 360.1,485.4 L 359.7,477.1 L 364.1,467.4 L 368.7,462.3 L 375.2,457.4 L 376.4,454.2 L 376.6,450.6 L 378.3,447.1 L 377.7,441.4 L 379.0,432.6 L 380.9,426.3 L 383.9,421.0 L 384.5,415.0 L 385.4,408.0 L 389.3,402.9 L 394.7,399.7 L 402.9,403.1 L 409.3,406.8 L 416.6,407.8 L 424.1,409.7 L 427.0,403.7 L 428.4,402.9 L 433.0,403.9 L 444.1,398.9 L 448.1,401.0 L 451.3,400.7 L 452.8,398.3 L 456.5,397.4 L 464.0,398.5 L 470.4,398.7 L 473.7,397.7 L 479.8,405.9 L 484.3,407.1 L 487.0,405.4 L 491.6,406.1 L 497.2,404.0 L 499.5,408.3 L 508.3,414.9 L 508.3,414.9 L 507.7,426.6 L 511.7,428.0 L 508.5,431.5 L 504.7,434.2 L 500.9,439.4 L 498.8,444.0 L 498.2,452.1 L 495.9,455.9 L 495.8,463.4 L 492.9,466.2 L 492.5,472.2 L 491.2,472.9 L 490.2,478.4 L 492.8,482.9 L 493.4,495.0 Z M 615.9,466.8 L 609.9,458.6 L 609.8,422.2 L 618.6,410.8 L 621.3,407.7 L 627.7,407.5 L 636.6,400.4 L 649.6,400.0 L 677.9,370.0 L 684.9,361.6 L 689.4,355.5 L 689.4,350.3 L 689.4,340.2 L 689.4,336.1 L 689.5,335.9 L 689.5,335.9 L 692.7,335.7 L 697.3,334.2 L 702.6,333.2 L 707.3,329.8 L 711.1,329.8 L 711.3,332.5 L 710.4,338.3 L 710.5,343.6 L 708.3,347.2 L 705.5,358.0 L 700.7,369.2 L 694.5,382.0 L 685.9,396.6 L 677.4,407.8 L 665.6,421.4 L 655.6,429.5 L 640.7,439.5 L 631.4,447.1 L 620.4,459.2 L 618.1,464.5 L 615.9,466.8 Z M 592.0,496.8 L 577.7,486.8 L 577.0,481.0 L 540.7,460.6 L 539.0,459.5 L 538.9,448.9 L 541.8,444.9 L 546.7,438.2 L 550.4,430.9 L 546.0,419.5 L 544.8,414.4 L 540.0,407.5 L 546.2,401.5 L 553.0,394.9 L 558.2,396.6 L 558.2,402.2 L 561.6,405.5 L 568.6,405.5 L 581.2,414.0 L 584.4,414.1 L 586.7,413.8 L 588.9,415.0 L 595.6,415.8 L 598.5,411.6 L 607.7,407.4 L 611.7,410.8 L 618.6,410.8 L 609.8,422.2 L 609.9,458.6 L 615.9,466.8 L 608.8,470.8 L 606.4,475.0 L 602.6,475.7 L 601.2,482.8 L 598.0,486.8 L 596.0,493.5 L 592.0,496.8 Z M 445.7,367.7 L 438.1,363.3 L 434.6,360.5 L 433.9,357.3 L 435.6,353.2 L 435.5,349.1 L 429.8,342.9 L 428.6,338.6 L 428.8,336.2 L 425.1,333.2 L 425.0,327.4 L 422.9,323.5 L 419.4,324.1 L 420.4,320.4 L 423.0,316.3 L 421.8,312.1 L 425.1,309.1 L 423.0,306.7 L 425.7,300.6 L 430.2,293.2 L 438.9,293.9 L 438.4,254.2 L 438.5,250 L 450,250.0 L 450,230 L 490.2,230 L 529.0,230 L 568.7,230 L 571.9,239.8 L 569.7,241.6 L 571.1,251.9 L 574.8,263.9 L 578.6,266.3 L 584.1,270.0 L 579.0,275.7 L 571.7,277.4 L 568.5,280.4 L 567.5,287.1 L 563.2,301.8 L 564.3,305.8 L 562.7,314.4 L 558.6,324.2 L 552.6,329.2 L 548.3,336.8 L 547.3,340.9 L 542.6,343.7 L 539.6,354.2 L 539.7,363.2 L 539.6,355.4 L 538.2,355.2 L 538.4,350.2 L 537.2,346.7 L 532.1,342.8 L 530.9,335.6 L 532.1,328.2 L 527.4,327.5 L 526.7,329.8 L 520.7,330.3 L 523.1,333.2 L 524.0,339.2 L 518.5,344.7 L 513.5,351.9 L 508.4,352.9 L 500.0,347.1 L 496.2,349.2 L 495.2,352.1 L 490.0,354.0 L 489.7,356.0 L 479.7,356.0 L 478.3,354.0 L 471.1,353.6 L 467.5,355.3 L 464.8,354.5 L 459.6,348.6 L 457.9,345.9 L 450.7,347.3 L 447.9,351.9 L 445.4,360.8 L 441.9,362.7 L 438.9,363.8 L 445.7,367.7 Z M 438.4,254.2 L 438.9,293.9 L 430.2,293.2 L 425.7,300.6 L 423.0,306.7 L 425.1,309.1 L 421.8,312.1 L 423.0,316.3 L 420.4,320.4 L 419.4,324.1 L 422.9,323.5 L 425.0,327.4 L 425.1,333.2 L 428.8,336.2 L 428.6,338.6 L 422.3,340.3 L 417.2,344.3 L 410.0,355.2 L 400.6,359.9 L 390.9,359.3 L 388.1,360.2 L 389.1,363.7 L 383.9,367.2 L 379.6,371.1 L 367.1,374.9 L 364.6,372.7 L 362.9,372.5 L 361.1,375.0 L 352.8,375.8 L 354.4,373.1 L 351.2,366.2 L 349.8,362.0 L 345.4,360.3 L 339.5,354.5 L 341.7,349.8 L 346.3,350.8 L 349.1,350.1 L 354.7,350.2 L 349.2,341.1 L 349.6,334.4 L 348.9,327.8 L 345.0,321.4 L 346.0,316.7 L 339.5,316.5 L 339.6,310.0 L 335.4,306.3 L 339.7,293.2 L 352.5,283.7 L 353.0,270.7 L 356.9,250.4 L 359.0,246.1 L 354.9,242.7 L 354.7,239.5 L 351.0,236.9 L 348.5,221.4 L 358.6,215.9 L 398.5,235.0 L 438.4,254.2 Z M 363.4,735.8 L 368.2,730.8 L 372.2,733.6 L 373.9,737.8 L 378.4,738.6 L 384.6,740.5 L 390.0,739.7 L 398.9,734.6 L 399.0,697.7 L 401.7,699.2 L 407.6,708.7 L 406.7,714.8 L 408.9,718.3 L 416.1,717.3 L 421.1,712.8 L 425.8,709.8 L 428.2,705.0 L 433.1,702.7 L 437.3,703.9 L 442.1,706.7 L 450.3,707.2 L 456.6,704.9 L 457.7,701.7 L 459.4,697.0 L 464.9,696.2 L 467.9,692.4 L 471.2,685.7 L 480.2,678.3 L 494.3,670.9 L 498.4,671.0 L 503.2,672.7 L 506.6,671.5 L 511.9,672.5 L 516.7,686.6 L 519.3,693.7 L 517.5,704.8 L 518.4,708.4 L 513.3,706.6 L 510.4,707.3 L 509.5,710.2 L 506.8,714.0 L 506.9,717.4 L 512.8,722.9 L 518.7,721.8 L 520.7,717.3 L 528.3,717.4 L 525.8,724.7 L 524.6,733.0 L 522.0,737.5 L 515.2,742.6 L 513.3,744.0 L 509.0,749.1 L 506.2,754.2 L 500.6,761.4 L 489.3,771.7 L 482.2,777.7 L 474.6,782.3 L 464.2,786.1 L 459.1,786.7 L 457.8,789.4 L 451.7,788.0 L 446.8,789.9 L 435.9,787.9 L 429.9,789.2 L 425.7,788.6 L 415.4,792.6 L 406.9,794.2 L 400.7,798.0 L 396.2,798.2 L 391.9,794.6 L 388.6,794.4 L 384.2,790.0 L 383.8,791.4 L 382.4,788.7 L 382.5,782.8 L 379.3,776.1 L 382.5,774.3 L 382.2,766.6 L 375.7,757.3 L 370.6,748.8 L 370.6,748.8 L 363.4,735.8 Z M 489.8,739.6 L 493.3,742.6 L 490.2,747.4 L 488.5,750.7 L 482.9,752.3 L 481.1,755.5 L 477.5,756.5 L 470.0,748.8 L 475.3,742.4 L 480.7,738.5 L 485.4,736.5 L 489.8,739.6 Z M 511.9,672.5 L 506.6,671.5 L 503.2,672.7 L 498.4,671.0 L 494.3,670.9 L 487.9,666.4 L 480.2,664.9 L 477.3,658.5 L 477.2,655.0 L 473.0,653.9 L 461.6,642.9 L 458.5,637.1 L 456.5,635.4 L 452.6,627.4 L 463.8,628.5 L 467.1,629.6 L 470.4,629.4 L 476.0,622.9 L 484.7,614.7 L 488.3,613.9 L 489.5,610.4 L 495.2,606.4 L 502.7,605.1 L 503.4,608.8 L 511.7,608.6 L 516.4,610.7 L 518.5,613.2 L 523.3,613.9 L 528.5,617.1 L 528.5,629.8 L 526.5,636.7 L 526.1,644.2 L 527.7,647.2 L 526.6,653.0 L 525.1,654.0 L 522.4,661.2 L 511.9,672.5 Z M 494.3,670.9 L 480.2,678.3 L 471.2,685.7 L 467.9,692.4 L 464.9,696.2 L 459.4,697.0 L 457.7,701.7 L 456.6,704.9 L 450.3,707.2 L 442.1,706.7 L 437.3,703.9 L 433.1,702.7 L 428.2,705.0 L 425.8,709.8 L 421.1,712.8 L 416.1,717.3 L 408.9,718.3 L 406.7,714.8 L 407.6,708.7 L 401.7,699.2 L 399.0,697.7 L 399.0,668.5 L 408.8,668.1 L 409.1,632.5 L 416.6,632.2 L 432.0,628.7 L 435.8,632.8 L 442.2,628.9 L 445.2,628.9 L 450.8,626.6 L 452.6,627.4 L 456.5,635.4 L 458.5,637.1 L 461.6,642.9 L 473.0,653.9 L 477.2,655.0 L 477.3,658.5 L 480.2,664.9 L 487.9,666.4 L 494.3,670.9 Z M 399.0,697.7 L 398.9,734.6 L 390.0,739.7 L 384.6,740.5 L 378.4,738.6 L 373.9,737.8 L 372.2,733.6 L 368.2,730.8 L 363.4,735.8 L 356.0,728.2 L 352.1,720.9 L 349.9,711.2 L 347.4,703.9 L 344.1,688.5 L 343.9,676.6 L 342.6,671.1 L 338.7,667.0 L 333.5,658.7 L 328.3,646.7 L 326.1,640.5 L 317.9,630.7 L 317.3,623.0 L 322.2,621.1 L 328.1,619.4 L 334.6,619.7 L 340.6,624.2 L 342.1,623.5 L 382.6,623.1 L 389.6,627.9 L 413.8,629.3 L 432.2,625.2 L 440.3,623.0 L 446.8,623.5 L 450.8,625.8 L 450.8,626.6 L 445.2,628.9 L 442.2,628.9 L 435.8,632.8 L 432.0,628.7 L 416.6,632.2 L 409.1,632.5 L 408.8,668.1 L 399.0,668.5 L 399.0,697.7 Z M 32.9,314.1 L 28.7,306.3 L 23.7,302.7 L 28.1,300.8 L 33.0,293.8 L 35.4,288.6 L 38.8,285.4 L 43.8,286.3 L 48.6,284.1 L 54.2,284.0 L 59.0,287.0 L 65.6,289.6 L 71.7,297.0 L 78.3,303.8 L 78.8,310.1 L 80.7,315.8 L 84.5,318.6 L 85.3,322.5 L 84.9,325.6 L 83.4,326.1 L 78.0,325.3 L 77.2,326.5 L 75.0,326.7 L 67.8,324.2 L 63.0,324.1 L 44.5,323.7 L 41.8,324.8 L 38.5,324.5 L 33.2,326.2 L 31.6,318.5 L 40.7,318.7 L 43.1,317.3 L 44.9,317.2 L 48.6,314.9 L 52.9,317.0 L 57.2,317.2 L 61.6,314.9 L 59.5,312.1 L 56.2,313.7 L 53.1,313.7 L 49.2,311.2 L 46.0,311.4 L 43.8,313.8 L 32.9,314.1 Z M 84.9,325.6 L 85.3,322.5 L 84.5,318.6 L 80.7,315.8 L 78.8,310.1 L 78.3,303.8 L 81.7,302.0 L 83.3,296.1 L 86.5,295.9 L 93.5,298.7 L 99.1,296.7 L 103.0,297.4 L 104.5,295.1 L 144.6,295.0 L 146.8,288.0 L 145.1,286.7 L 140.3,243.6 L 135.5,200.4 L 150.8,200.3 L 184.5,222.1 L 218.2,243.9 L 220.6,248.6 L 226.8,251.4 L 231.5,253.1 L 231.6,259.4 L 242.7,258.4 L 242.7,281.5 L 237.2,288.2 L 236.4,294.3 L 227.5,295.9 L 213.9,296.8 L 210.2,300.3 L 203.7,300.7 L 197.3,300.8 L 194.8,298.8 L 189.3,300.3 L 180.0,304.4 L 178.1,307.5 L 170.3,312.0 L 169.0,314.6 L 164.8,316.6 L 159.9,315.3 L 157.2,317.7 L 155.7,324.6 L 147.8,332.9 L 148.0,336.2 L 145.3,340.5 L 146.0,346.3 L 141.8,347.8 L 139.5,349.0 L 137.9,344.8 L 135.1,345.9 L 133.3,345.7 L 131.5,348.6 L 123.8,348.5 L 121.0,347.0 L 119.7,347.9 L 116.6,345.1 L 117.2,342.1 L 115.9,340.9 L 113.8,341.9 L 114.2,338.6 L 116.2,336.1 L 112.1,331.9 L 110.9,329.1 L 108.7,326.9 L 106.7,326.7 L 104.3,328.1 L 101.1,329.4 L 98.3,331.6 L 94.1,330.8 L 91.3,328.2 L 89.6,327.9 L 87.0,329.2 L 85.4,329.2 L 84.9,325.6 Z M 29.4,240.0 L 31.5,236.7 L 70.7,236.7 L 68.8,222.3 L 71.3,217.2 L 80.6,216.3 L 80.3,190.7 L 113.1,191.2 L 113.2,176.0 L 150.8,200.3 L 135.5,200.4 L 140.3,243.6 L 145.1,286.7 L 146.8,288.0 L 144.6,295.0 L 104.5,295.1 L 103.0,297.4 L 99.1,296.7 L 93.5,298.7 L 86.5,295.9 L 83.3,296.1 L 81.7,302.0 L 78.3,303.8 L 71.7,297.0 L 65.6,289.6 L 59.0,287.0 L 54.2,284.0 L 48.6,284.1 L 43.8,286.3 L 38.8,285.4 L 35.4,288.6 L 34.5,283.3 L 37.3,278.3 L 38.5,268.9 L 37.4,259.0 L 36.2,254.1 L 37.2,249.1 L 34.6,244.3 L 29.4,240.0 Z M 226.9,387.4 L 218.7,388.6 L 216.2,381.7 L 216.6,358.7 L 214.6,356.7 L 214.3,351.7 L 210.8,348.2 L 207.7,345.3 L 209.0,340.0 L 212.4,338.9 L 214.5,334.5 L 219.4,333.6 L 221.5,330.6 L 224.9,327.7 L 228.5,327.6 L 236.1,333.4 L 235.7,336.7 L 238.0,342.7 L 236.0,346.7 L 237.1,349.4 L 232.2,355.6 L 229.1,358.6 L 227.2,364.9 L 227.5,371.3 L 226.9,387.4 Z M 348.5,221.4 L 351.0,236.9 L 354.7,239.5 L 354.9,242.7 L 359.0,246.1 L 356.9,250.4 L 353.0,270.7 L 352.5,283.7 L 339.7,293.2 L 335.4,306.3 L 339.6,310.0 L 339.5,316.5 L 346.0,316.7 L 345.0,321.4 L 342.1,322.0 L 341.8,325.2 L 340.0,325.4 L 333.2,314.4 L 330.8,314.0 L 323.0,319.6 L 315.3,316.7 L 309.9,316.1 L 307.0,317.5 L 301.1,317.2 L 295.2,321.5 L 290.1,321.7 L 278.0,316.6 L 273.3,319.0 L 268.2,318.8 L 264.5,315.1 L 254.4,311.3 L 243.7,312.5 L 241.1,314.7 L 239.7,320.4 L 236.8,324.5 L 236.1,333.4 L 228.5,327.6 L 224.9,327.7 L 221.5,330.6 L 221.8,323.7 L 210.2,321.5 L 209.9,316.6 L 204.3,310.1 L 203.0,305.6 L 203.7,300.7 L 210.2,300.3 L 213.9,296.8 L 227.5,295.9 L 236.4,294.3 L 237.2,288.2 L 242.7,281.5 L 242.7,258.4 L 256.8,254.0 L 285.7,234.3 L 320.0,215.3 L 335.8,219.6 L 341.4,225.1 L 348.5,221.4 Z M 226.9,387.4 L 227.5,371.3 L 227.2,364.9 L 229.1,358.6 L 232.2,355.6 L 237.1,349.4 L 236.0,346.7 L 238.0,342.7 L 235.7,336.7 L 236.1,333.4 L 236.8,324.5 L 239.7,320.4 L 241.1,314.7 L 243.7,312.5 L 254.4,311.3 L 264.5,315.1 L 268.2,318.8 L 273.3,319.0 L 278.0,316.6 L 290.1,321.7 L 295.2,321.5 L 301.1,317.2 L 307.0,317.5 L 309.9,316.1 L 315.3,316.7 L 323.0,319.6 L 330.8,314.0 L 333.2,314.4 L 340.0,325.4 L 341.8,325.2 L 345.8,329.1 L 344.7,331.0 L 344.2,334.3 L 335.7,342.0 L 333.1,348.4 L 331.7,353.6 L 329.6,355.8 L 327.5,362.8 L 322.2,366.9 L 320.6,372.0 L 318.4,376.0 L 317.5,380.2 L 310.6,383.6 L 305.0,379.4 L 301.2,379.6 L 295.2,385.5 L 292.3,385.6 L 287.6,395.2 L 285.0,402.3 L 274.6,405.9 L 270.8,405.4 L 267.0,407.6 L 259.0,407.4 L 253.6,401.1 L 250.3,393.9 L 243.3,387.3 L 235.7,387.4 L 226.9,387.4 Z M 345.0,321.4 L 348.9,327.8 L 349.6,334.4 L 349.2,341.1 L 354.7,350.2 L 349.1,350.1 L 346.3,350.8 L 341.7,349.8 L 339.5,354.5 L 345.4,360.3 L 349.8,362.0 L 351.2,366.2 L 354.4,373.1 L 352.8,375.8 L 347.8,385.9 L 345.4,387.7 L 344.6,395.5 L 345.6,399.7 L 344.8,402.7 L 349.5,407.9 L 350.4,411.5 L 354.1,416.6 L 358.6,419.9 L 359.1,424.4 L 360.1,427.3 L 359.4,432.7 L 351.5,430.4 L 343.4,427.7 L 330.8,427.3 L 329.5,426.8 L 323.6,428.1 L 317.5,426.7 L 312.8,427.4 L 296.5,427.2 L 298.0,419.3 L 294.0,412.7 L 289.5,411.0 L 287.4,406.5 L 284.9,405.0 L 285.0,402.3 L 287.6,395.2 L 292.3,385.6 L 295.2,385.5 L 301.2,379.6 L 305.0,379.4 L 310.6,383.6 L 317.5,380.2 L 318.4,376.0 L 320.6,372.0 L 322.2,366.9 L 327.5,362.8 L 329.6,355.8 L 331.7,353.6 L 333.1,348.4 L 335.7,342.0 L 344.2,334.3 L 344.7,331.0 L 345.8,329.1 L 341.8,325.2 L 342.1,322.0 L 345.0,321.4 Z M 209.0,340.0 L 207.7,345.3 L 210.8,348.2 L 214.3,351.7 L 214.6,356.7 L 216.6,358.7 L 216.2,381.7 L 218.7,388.6 L 210.6,390.7 L 208.4,387.2 L 205.7,380.9 L 204.9,375.9 L 207.1,366.9 L 204.6,363.2 L 203.7,355.3 L 203.7,348.1 L 199.5,342.9 L 200.2,339.8 L 209.0,340.0 Z M 200.2,339.8 L 199.5,342.9 L 203.7,348.1 L 203.7,355.3 L 204.6,363.2 L 207.1,366.9 L 204.9,375.9 L 205.7,380.9 L 208.4,387.2 L 210.6,390.7 L 194.9,396.6 L 189.4,400.0 L 180.4,402.9 L 171.4,400.1 L 171.9,396.1 L 167.6,387.5 L 170.2,376.2 L 174.4,367.8 L 171.7,353.6 L 170.4,346.0 L 170.6,340.4 L 188.0,339.9 L 192.4,340.6 L 195.6,339.0 L 200.2,339.8 Z M 119.7,347.9 L 121.0,347.0 L 123.8,348.5 L 131.5,348.6 L 133.3,345.7 L 135.1,345.9 L 137.9,344.8 L 139.5,349.0 L 141.8,347.8 L 146.0,346.3 L 150.5,348.5 L 152.2,351.8 L 156.7,353.9 L 160.2,351.4 L 164.9,351.0 L 171.7,353.6 L 174.4,367.8 L 170.2,376.2 L 167.6,387.5 L 171.9,396.1 L 171.4,400.1 L 166.9,400.2 L 159.9,398.2 L 153.5,398.3 L 141.7,400.1 L 134.7,402.9 L 124.8,406.6 L 122.9,406.4 L 123.6,398.1 L 124.6,396.9 L 124.3,392.9 L 120.1,388.7 L 116.9,388.1 L 114.0,385.3 L 116.1,380.9 L 115.1,376.0 L 115.6,373.1 L 117.2,373.1 L 117.8,368.8 L 117.0,366.8 L 118.0,365.4 L 121.7,364.2 L 119.2,356.2 L 116.9,352.1 L 117.7,348.7 L 119.7,347.9 Z M 63.0,324.1 L 67.8,324.2 L 75.0,326.7 L 77.2,326.5 L 78.0,325.3 L 83.4,326.1 L 84.9,325.6 L 85.4,329.2 L 87.0,329.2 L 89.6,327.9 L 91.3,328.2 L 94.1,330.8 L 98.3,331.6 L 101.1,329.4 L 104.3,328.1 L 106.7,326.7 L 108.7,326.9 L 110.9,329.1 L 112.1,331.9 L 116.2,336.1 L 114.2,338.6 L 113.8,341.9 L 115.9,340.9 L 117.2,342.1 L 116.6,345.1 L 119.7,347.9 L 117.7,348.7 L 116.9,352.1 L 119.2,356.2 L 121.7,364.2 L 118.0,365.4 L 117.0,366.8 L 117.8,368.8 L 117.2,373.1 L 115.6,373.1 L 112.8,372.9 L 110.7,376.9 L 107.9,376.9 L 106.0,374.7 L 106.6,370.7 L 102.4,364.6 L 99.8,365.7 L 97.7,365.9 L 94.9,366.5 L 95.1,362.8 L 93.5,360.2 L 93.8,357.3 L 91.6,353.1 L 88.8,349.5 L 80.8,349.5 L 78.5,351.4 L 75.7,351.6 L 74.0,353.8 L 72.9,356.6 L 67.5,361.0 L 63.1,355.1 L 59.3,351.1 L 56.7,349.8 L 54.2,347.9 L 53.1,343.4 L 51.6,341.2 L 48.7,339.6 L 53.1,334.7 L 56.2,334.9 L 58.8,333.2 L 61.0,333.2 L 62.6,331.9 L 61.7,328.6 L 62.8,327.5 L 63.0,324.1 Z M 33.2,326.2 L 38.5,324.5 L 41.8,324.8 L 44.5,323.7 L 63.0,324.1 L 62.8,327.5 L 61.7,328.6 L 62.6,331.9 L 61.0,333.2 L 58.8,333.2 L 56.2,334.9 L 53.1,334.7 L 48.7,339.6 L 43.4,335.4 L 39.1,334.8 L 36.9,331.9 L 36.9,330.4 L 33.9,328.3 L 33.2,326.2 Z M 115.6,373.1 L 115.1,376.0 L 116.1,380.9 L 114.0,385.3 L 116.9,388.1 L 120.1,388.7 L 124.3,392.9 L 124.6,396.9 L 123.6,398.1 L 122.9,406.4 L 120.3,406.4 L 110.0,401.7 L 100.9,394.1 L 92.3,388.6 L 85.6,382.1 L 88.0,378.9 L 88.5,376.0 L 93.0,370.6 L 97.7,365.9 L 99.8,365.7 L 102.4,364.6 L 106.6,370.7 L 106.0,374.7 L 107.9,376.9 L 110.7,376.9 L 112.8,372.9 L 115.6,373.1 Z M 67.5,361.0 L 72.9,356.6 L 74.0,353.8 L 75.7,351.6 L 78.5,351.4 L 80.8,349.5 L 88.8,349.5 L 91.6,353.1 L 93.8,357.3 L 93.5,360.2 L 95.1,362.8 L 94.9,366.5 L 97.7,365.9 L 93.0,370.6 L 88.5,376.0 L 88.0,378.9 L 85.6,382.1 L 82.9,381.4 L 75.7,377.4 L 70.5,372.0 L 68.8,368.4 L 67.5,361.0 Z M 146.0,346.3 L 145.3,340.5 L 148.0,336.2 L 147.8,332.9 L 155.7,324.6 L 157.2,317.7 L 159.9,315.3 L 164.8,316.6 L 169.0,314.6 L 170.3,312.0 L 178.1,307.5 L 180.0,304.4 L 189.3,300.3 L 194.8,298.8 L 197.3,300.8 L 203.7,300.7 L 203.0,305.6 L 204.3,310.1 L 209.9,316.6 L 210.2,321.5 L 221.8,323.7 L 221.5,330.6 L 219.4,333.6 L 214.5,334.5 L 212.4,338.9 L 209.0,340.0 L 200.2,339.8 L 195.6,339.0 L 192.4,340.6 L 188.0,339.9 L 170.6,340.4 L 170.4,346.0 L 171.7,353.6 L 164.9,351.0 L 160.2,351.4 L 156.7,353.9 L 152.2,351.8 L 150.5,348.5 L 146.0,346.3 Z M 473.7,397.7 L 470.4,398.7 L 464.0,398.5 L 456.5,397.4 L 452.8,398.3 L 451.3,400.7 L 448.1,401.0 L 444.1,398.9 L 433.0,403.9 L 428.4,402.9 L 427.0,403.7 L 424.1,409.7 L 416.6,407.8 L 409.3,406.8 L 402.9,403.1 L 394.7,399.7 L 389.3,402.9 L 385.4,408.0 L 384.5,415.0 L 378.1,414.4 L 371.3,412.7 L 365.4,418.0 L 360.1,427.3 L 359.1,424.4 L 358.6,419.9 L 354.1,416.6 L 350.4,411.5 L 349.5,407.9 L 344.8,402.7 L 345.6,399.7 L 344.6,395.5 L 345.4,387.7 L 347.8,385.9 L 352.8,375.8 L 361.1,375.0 L 362.9,372.5 L 364.6,372.7 L 367.1,374.9 L 379.6,371.1 L 383.9,367.2 L 389.1,363.7 L 388.1,360.2 L 390.9,359.3 L 400.6,359.9 L 410.0,355.2 L 417.2,344.3 L 422.3,340.3 L 428.6,338.6 L 429.8,342.9 L 435.5,349.1 L 435.6,353.2 L 433.9,357.3 L 434.6,360.5 L 438.1,363.3 L 445.7,367.7 L 451.1,371.7 L 451.2,375.0 L 458.0,380.2 L 462.1,384.5 L 464.7,390.5 L 472.1,394.5 L 473.7,397.7 Z M 384.5,415.0 L 383.9,421.0 L 380.9,426.3 L 379.0,432.6 L 377.7,441.4 L 378.3,447.1 L 376.6,450.6 L 376.4,454.2 L 375.2,457.4 L 368.7,462.3 L 364.1,467.4 L 359.7,477.1 L 360.1,485.4 L 357.5,488.6 L 351.7,493.4 L 345.8,499.7 L 342.1,497.9 L 341.4,495.1 L 336.0,495.0 L 332.6,498.8 L 330.0,497.8 L 326.2,494.4 L 323.2,496.1 L 319.1,500.4 L 310.9,489.8 L 318.6,484.3 L 314.8,477.7 L 318.2,475.1 L 325.0,473.9 L 325.8,469.5 L 331.1,474.3 L 339.9,474.7 L 343.0,470.0 L 344.3,463.3 L 343.2,455.5 L 338.4,449.6 L 342.8,438.0 L 340.3,436.0 L 332.8,436.9 L 330.0,431.7 L 330.8,427.3 L 343.4,427.7 L 351.5,430.4 L 359.4,432.7 L 360.1,427.3 L 365.4,418.0 L 371.3,412.7 L 378.1,414.4 L 384.5,415.0 Z M 312.8,427.4 L 317.5,426.7 L 323.6,428.1 L 329.5,426.8 L 330.8,427.3 L 330.0,431.7 L 332.8,436.9 L 340.3,436.0 L 342.8,438.0 L 338.4,449.6 L 343.2,455.5 L 344.3,463.3 L 343.0,470.0 L 339.9,474.7 L 331.1,474.3 L 325.8,469.5 L 325.0,473.9 L 318.2,475.1 L 314.8,477.7 L 318.6,484.3 L 310.9,489.8 L 300.7,479.7 L 294.1,471.4 L 288.0,461.1 L 288.3,457.8 L 290.5,454.6 L 292.9,447.3 L 294.9,439.9 L 298.3,439.3 L 312.9,439.4 L 312.8,427.4 Z M 296.5,427.2 L 312.8,427.4 L 312.9,439.4 L 298.3,439.3 L 294.9,439.9 L 293.1,438.4 L 296.5,427.2 Z M 507.4,533.4 L 511.6,535.9 L 515.6,537.6 L 521.9,539.3 L 527.6,542.3 L 532.3,546.8 L 534.9,555.3 L 533.2,558.0 L 531.1,566.1 L 533.1,574.4 L 529.9,577.8 L 526.9,587.1 L 532.1,589.7 L 501.8,598.0 L 502.7,605.1 L 495.2,606.4 L 489.5,610.4 L 488.3,613.9 L 484.7,614.7 L 476.0,622.9 L 470.4,629.4 L 467.1,629.6 L 463.8,628.5 L 452.6,627.4 L 450.8,626.6 L 450.8,625.8 L 446.8,623.5 L 440.3,623.0 L 432.2,625.2 L 425.6,619.0 L 418.9,610.8 L 419.3,579.0 L 440.2,579.1 L 439.3,575.7 L 440.8,571.9 L 439.0,567.2 L 440.2,562.4 L 439.1,559.3 L 442.6,559.5 L 443.1,562.6 L 447.8,562.4 L 454.2,563.3 L 457.5,567.8 L 465.5,569.2 L 471.6,566.1 L 473.9,571.3 L 481.6,572.7 L 485.2,577.0 L 489.3,582.5 L 497.0,582.6 L 496.2,571.8 L 493.4,573.6 L 486.4,569.7 L 483.7,567.9 L 485.0,557.9 L 486.7,546.1 L 484.5,541.6 L 487.3,535.3 L 490.0,534.1 L 503.5,532.4 L 507.4,533.4 Z M 527.6,542.3 L 537.4,544.2 L 539.4,546.9 L 542.8,551.6 L 545.6,565.2 L 542.8,572.8 L 545.6,585.8 L 549.1,585.7 L 552.7,588.9 L 556.9,596.1 L 557.7,609.0 L 553.4,611.1 L 550.3,618.0 L 543.8,611.8 L 543.1,604.8 L 545.2,600.1 L 544.6,596.1 L 540.6,593.6 L 537.9,594.5 L 532.1,589.7 L 526.9,587.1 L 529.9,577.8 L 533.1,574.4 L 531.1,566.1 L 533.2,558.0 L 534.9,555.3 L 532.3,546.8 L 527.6,542.3 Z M 545.6,565.2 L 553.1,564.4 L 565.1,567.2 L 567.8,565.9 L 574.7,565.7 L 578.3,562.7 L 584.3,562.9 L 595.2,559.0 L 603.2,553.2 L 603.2,553.2 L 603.2,553.2 L 604.8,557.7 L 604.4,567.6 L 605.6,576.4 L 606.0,592.0 L 607.8,596.9 L 604.8,604.1 L 600.9,611.0 L 594.5,617.2 L 585.4,621.0 L 574.1,625.9 L 562.8,636.6 L 559.0,638.4 L 552.0,645.5 L 547.9,647.8 L 547.0,655.0 L 551.8,662.5 L 553.7,668.4 L 553.9,671.4 L 555.6,670.9 L 555.3,680.7 L 553.7,685.4 L 556.1,687.1 L 554.6,691.2 L 550.4,694.8 L 542.2,698.2 L 530.1,703.6 L 525.7,707.3 L 526.6,711.5 L 529.2,712.2 L 528.3,717.4 L 520.7,717.3 L 519.9,712.9 L 518.4,708.4 L 517.5,704.8 L 519.3,693.7 L 516.7,686.6 L 511.9,672.5 L 522.4,661.2 L 525.1,654.0 L 526.6,653.0 L 527.7,647.2 L 526.1,644.2 L 526.5,636.7 L 528.5,629.8 L 528.5,617.1 L 523.3,613.9 L 518.5,613.2 L 516.4,610.7 L 511.7,608.6 L 503.4,608.8 L 502.7,605.1 L 501.8,598.0 L 532.1,589.7 L 537.9,594.5 L 540.6,593.6 L 544.6,596.1 L 545.2,600.1 L 543.1,604.8 L 543.8,611.8 L 550.3,618.0 L 553.4,611.1 L 557.7,609.0 L 556.9,596.1 L 552.7,588.9 L 549.1,585.7 L 545.6,585.8 L 542.8,572.8 L 545.6,565.2 Z M 520.7,717.3 L 518.7,721.8 L 512.8,722.9 L 506.9,717.4 L 506.8,714.0 L 509.5,710.2 L 510.4,707.3 L 513.3,706.6 L 518.4,708.4 L 519.9,712.9 L 520.7,717.3 Z M 330.0,497.8 L 326.3,499.9 L 324.7,502.5 L 324.4,506.8 L 321.8,507.9 L 319.1,500.4 L 323.2,496.1 L 326.2,494.4 L 330.0,497.8 Z M 323.2,511.0 L 327.4,509.7 L 330.2,509.8 L 333.8,508.6 L 363.3,508.8 L 365.7,516.2 L 368.6,522.2 L 370.9,525.5 L 374.7,530.7 L 381.3,529.9 L 384.6,528.5 L 390.2,529.9 L 391.7,527.4 L 394.2,521.6 L 400.4,521.2 L 400.9,519.4 L 406.0,519.4 L 405.1,523.0 L 417.3,522.9 L 417.5,529.2 L 419.5,533.1 L 418.0,539.1 L 418.8,545.2 L 422.1,548.9 L 421.6,560.8 L 424.0,559.9 L 428.4,560.2 L 434.6,558.7 L 439.1,559.3 L 440.2,562.4 L 439.0,567.2 L 440.8,571.9 L 439.3,575.7 L 440.2,579.1 L 419.3,579.0 L 418.9,610.8 L 425.6,619.0 L 432.2,625.2 L 413.8,629.3 L 389.6,627.9 L 382.6,623.1 L 342.1,623.5 L 340.6,624.2 L 334.6,619.7 L 328.1,619.4 L 322.2,621.1 L 317.3,623.0 L 316.4,616.7 L 317.8,607.9 L 321.2,598.8 L 321.8,594.5 L 325.0,585.5 L 327.4,581.4 L 333.1,574.8 L 336.3,570.4 L 337.4,563.0 L 336.9,557.3 L 333.9,553.7 L 331.2,547.7 L 328.8,541.7 L 329.3,539.6 L 332.4,535.6 L 329.3,526.0 L 327.3,519.3 L 322.3,512.9 L 323.2,511.0 Z M 504.7,474.1 L 505.3,478.1 L 507.4,480.3 L 507.5,483.6 L 505.1,485.7 L 501.2,490.9 L 497.5,494.5 L 493.4,495.0 L 492.8,482.9 L 490.2,478.4 L 496.3,479.2 L 499.4,473.5 L 504.7,474.1 Z M 695.4,574.7 L 698.1,579.0 L 700.6,585.6 L 702.2,597.6 L 704.8,602.3 L 703.8,607.1 L 702.0,610.0 L 698.6,604.1 L 696.7,607.1 L 698.6,614.5 L 697.7,618.8 L 695.0,621.1 L 694.4,629.5 L 690.4,641.2 L 685.5,655.0 L 679.3,673.9 L 675.5,687.8 L 671.0,699.4 L 662.8,701.8 L 654.1,706.0 L 648.3,703.5 L 640.4,699.9 L 637.6,694.6 L 637.0,685.7 L 633.5,677.8 L 632.5,670.6 L 634.3,663.4 L 638.9,661.6 L 639.0,658.3 L 643.7,650.7 L 644.6,644.4 L 642.3,639.6 L 640.4,633.3 L 639.6,624.1 L 643.1,618.5 L 644.5,612.2 L 649.4,611.8 L 655.0,609.7 L 658.7,607.9 L 663.1,607.8 L 668.8,602.1 L 677.1,595.9 L 680.1,590.9 L 678.7,586.6 L 682.9,587.8 L 688.5,580.9 L 688.6,574.9 L 691.9,570.4 L 695.4,574.7 Z M 32.9,314.1 L 43.8,313.8 L 46.0,311.4 L 49.2,311.2 L 53.1,313.7 L 56.2,313.7 L 59.5,312.1 L 61.6,314.9 L 57.2,317.2 L 52.9,317.0 L 48.6,314.9 L 44.9,317.2 L 43.1,317.3 L 40.7,318.7 L 31.6,318.5 L 32.9,314.1 Z M 294.8,146.9 L 290.6,129.0 L 284.4,124.9 L 284.3,122.5 L 276.1,116.6 L 275.2,109.0 L 281.4,103.4 L 283.8,95.2 L 282.2,85.7 L 284.2,80.5 L 295.1,76.5 L 302.1,77.7 L 301.8,82.8 L 310.3,79.1 L 311.0,81.0 L 306.0,85.9 L 305.9,90.5 L 309.4,93.0 L 308.1,101.7 L 301.5,106.7 L 303.4,112.1 L 308.6,112.3 L 311.1,117.1 L 314.9,118.6 L 314.3,126.3 L 309.4,129.2 L 306.4,132.4 L 299.5,136.2 L 300.6,140.4 L 299.7,144.6 L 294.8,146.9 Z M 113.2,176.0 L 113.3,174.1 L 113.3,173.4 L 113.3,161.6 L 129.4,154.2 L 139.4,152.7 L 147.6,150.0 L 151.4,145.0 L 163.1,141.0 L 163.5,133.6 L 169.3,132.8 L 173.8,129.1 L 186.9,127.4 L 188.8,123.5 L 186.1,121.4 L 182.7,110.8 L 182.1,104.7 L 178.3,98.3 L 187.9,92.9 L 198.7,91.1 L 205.0,87.0 L 214.7,83.9 L 231.6,82.2 L 248.2,81.3 L 253.2,82.8 L 262.6,78.9 L 273.3,78.8 L 277.4,81.1 L 284.2,80.5 L 282.2,85.7 L 283.8,95.2 L 281.4,103.4 L 275.2,109.0 L 276.1,116.6 L 284.3,122.5 L 284.4,124.9 L 290.6,129.0 L 294.8,146.9 L 298.1,155.8 L 298.6,160.4 L 296.8,168.6 L 297.6,173.1 L 296.3,178.6 L 297.2,184.9 L 293.2,189.1 L 299.1,196.3 L 299.5,200.6 L 303.0,206.2 L 307.7,204.4 L 315.6,209.0 L 320.0,215.3 L 285.7,234.3 L 256.8,254.0 L 242.7,258.4 L 231.6,259.4 L 231.5,253.1 L 226.8,251.4 L 220.6,248.6 L 218.2,243.9 L 184.5,222.1 L 150.8,200.3 L 113.2,176.0 Z M 564.3,305.8 L 563.2,301.8 L 567.5,287.1 L 568.5,280.4 L 571.7,277.4 L 579.0,275.7 L 584.1,270.0 L 589.9,281.6 L 592.7,290.8 L 598.1,295.6 L 611.8,305.1 L 617.3,310.8 L 622.8,316.6 L 625.9,320.0 L 630.8,323.0 L 627.8,325.4 L 623.5,324.6 L 620.1,321.3 L 616.0,315.5 L 611.6,312.3 L 609.0,308.8 L 600.3,304.8 L 593.4,304.7 L 591.0,302.6 L 585.1,304.9 L 579.1,300.4 L 575.9,307.9 L 564.3,305.8 Z M 178.3,98.3 L 182.1,104.7 L 182.7,110.8 L 186.1,121.4 L 188.8,123.5 L 186.9,127.4 L 173.8,129.1 L 169.3,132.8 L 163.5,133.6 L 163.1,141.0 L 151.4,145.0 L 147.6,150.0 L 139.4,152.7 L 129.4,154.2 L 113.3,161.6 L 113.3,173.4 L 111.8,173.4 L 112.1,178.8 L 105.9,179.1 L 102.6,181.4 L 98.1,181.4 L 94.5,180.1 L 86.1,181.2 L 82.8,189.0 L 79.7,189.7 L 75.0,202.3 L 61.1,213.1 L 57.8,226.9 L 53.7,231.4 L 52.5,235.0 L 30.0,235.8 L 29.8,235.8 L 30.3,231.1 L 34.1,228.4 L 37.4,223.2 L 36.7,219.8 L 40.2,212.8 L 45.7,206.4 L 49.1,204.8 L 51.8,199.0 L 52.0,193.6 L 55.6,187.5 L 62.3,183.8 L 68.6,173.6 L 68.8,173.5 L 73.8,169.6 L 83.1,168.5 L 91.0,161.7 L 96.0,159.0 L 104.4,150.7 L 101.9,138.2 L 105.7,129.6 L 107.0,124.4 L 113.4,117.6 L 123.5,113.0 L 130.9,108.9 L 137.6,98.5 L 140.7,92.4 L 148.1,92.4 L 154.1,96.7 L 163.6,96.0 L 174.0,98.2 L 178.3,98.3 Z M 568.7,230 L 529.0,230 L 490.2,230 L 450,230 L 450,193.2 L 450,157.6 L 447.0,149.6 L 449.6,143.4 L 448.0,139.1 L 451.6,134.3 L 465.0,134.1 L 474.6,136.8 L 484.5,139.7 L 489.1,141.3 L 496.8,138.1 L 501.0,135.3 L 509.8,134.4 L 516.9,135.7 L 519.6,140.7 L 521.9,137.4 L 529.9,139.8 L 537.7,140.3 L 542.7,137.8 L 542.7,137.8 L 548.2,152.4 L 549.2,155.0 L 546.4,159.0 L 544.3,166.6 L 541.5,171.8 L 539.2,173.5 L 535.9,170.3 L 531.4,165.8 L 524.2,151.5 L 523.2,152.4 L 527.3,162.9 L 533.5,173.0 L 541.0,188.6 L 544.7,194.0 L 548.0,199.7 L 556.9,210.7 L 554.9,212.5 L 555.3,219.0 L 566.9,228.0 L 568.7,230 Z M 450,230 L 450,250.0 L 438.5,250 L 438.4,254.2 L 398.5,235.0 L 358.6,215.9 L 348.5,221.4 L 341.4,225.1 L 335.8,219.6 L 320.0,215.3 L 315.6,209.0 L 307.7,204.4 L 303.0,206.2 L 299.5,200.6 L 299.1,196.3 L 293.2,189.1 L 297.2,184.9 L 296.3,178.6 L 297.6,173.1 L 296.8,168.6 L 298.6,160.4 L 298.1,155.8 L 294.8,146.9 L 299.7,144.6 L 300.6,140.4 L 299.5,136.2 L 306.4,132.4 L 309.4,129.2 L 314.3,126.3 L 314.9,118.6 L 326.6,122.1 L 330.8,121.2 L 339.2,122.9 L 352.5,127.3 L 357.1,136.2 L 366.1,138.2 L 380.2,142.4 L 390.9,147.3 L 395.7,144.7 L 400.5,140.1 L 398.2,132.5 L 401.3,127.6 L 408.5,122.9 L 415.4,121.6 L 429.0,123.6 L 432.4,128.1 L 436.1,128.1 L 439.3,129.8 L 449.2,131.0 L 451.6,134.3 L 448.0,139.1 L 449.6,143.4 L 447.0,149.6 L 450,157.6 L 450,193.2 L 450,230 Z M 677.9,370.0 L 649.6,400.0 L 636.6,400.4 L 627.7,407.5 L 621.3,407.7 L 618.6,410.8 L 611.7,410.8 L 607.7,407.4 L 598.5,411.6 L 595.6,415.8 L 588.9,415.0 L 586.7,413.8 L 584.4,414.1 L 581.2,414.0 L 568.6,405.5 L 561.6,405.5 L 558.2,402.2 L 558.2,396.6 L 553.0,394.9 L 547.1,384.1 L 542.5,381.7 L 540.8,377.7 L 535.7,372.9 L 529.5,372.2 L 532.9,366.5 L 538.3,366.2 L 539.7,363.2 L 539.6,354.2 L 542.6,343.7 L 547.3,340.9 L 548.3,336.8 L 552.6,329.2 L 558.6,324.2 L 562.7,314.4 L 564.3,305.8 L 575.9,307.9 L 579.1,300.4 L 585.1,304.9 L 591.0,302.6 L 593.4,304.7 L 600.3,304.8 L 609.0,308.8 L 611.6,312.3 L 616.0,315.5 L 620.1,321.3 L 623.5,324.6 L 620,329.0 L 616.6,333.7 L 617.4,336.4 L 617.6,339.5 L 623.1,339.7 L 625.5,338.9 L 627.8,340.7 L 625.6,344.3 L 629.3,349.8 L 633.0,354.6 L 636.8,358.2 L 669.5,370.0 L 677.9,370.0 Z M 623.5,324.6 L 627.8,325.4 L 630.8,323.0 L 633.2,326.1 L 632.9,330.3 L 627.2,332.6 L 631.5,335.4 L 627.8,340.7 L 625.5,338.9 L 623.1,339.7 L 617.6,339.5 L 617.4,336.4 L 616.6,333.7 L 620,329.0 L 623.5,324.6 Z M 689.5,335.9 L 689.5,335.9 L 689.4,336.1 L 689.4,340.2 L 689.4,350.3 L 689.4,355.5 L 684.9,361.6 L 677.9,370.0 L 669.5,370.0 L 636.8,358.2 L 633.0,354.6 L 629.3,349.8 L 625.6,344.3 L 627.8,340.7 L 631.5,335.4 L 634.7,337.2 L 636.7,341.4 L 641.2,345.5 L 646.1,345.6 L 655.6,343.0 L 666.5,341.8 L 675.3,338.7 L 680.2,338.1 L 683.8,336.2 L 689.5,335.9 L 689.5,335.9 Z M 539.0,459.5 L 518.7,460.3 L 507.7,460.1 L 504.2,461.3 L 498.2,464.4 L 495.8,463.4 L 495.9,455.9 L 498.2,452.1 L 498.8,444.0 L 500.9,439.4 L 504.7,434.2 L 508.5,431.5 L 511.7,428.0 L 507.7,426.6 L 508.3,414.9 L 508.3,414.9 L 512.5,412.2 L 518.8,414.4 L 526.9,412.1 L 533.9,412.1 L 540.0,407.5 L 544.8,414.4 L 546.0,419.5 L 550.4,430.9 L 546.7,438.2 L 541.8,444.9 L 538.9,448.9 L 539.0,459.5 Z M 504.2,461.3 L 508.2,467.0 L 507.6,472.9 L 504.7,474.1 L 504.7,474.1 L 499.4,473.5 L 496.3,479.2 L 490.2,478.4 L 491.2,472.9 L 492.5,472.2 L 492.9,466.2 L 495.8,463.4 L 498.2,464.4 L 504.2,461.3 Z M 508.3,414.9 L 499.5,408.3 L 497.2,404.0 L 491.6,406.1 L 487.0,405.4 L 484.3,407.1 L 479.8,405.9 L 473.7,397.7 L 472.1,394.5 L 464.7,390.5 L 462.1,384.5 L 458.0,380.2 L 451.2,375.0 L 451.1,371.7 L 445.7,367.7 L 438.9,363.8 L 441.9,362.7 L 445.4,360.8 L 447.9,351.9 L 450.7,347.3 L 457.9,345.9 L 459.6,348.6 L 464.8,354.5 L 467.5,355.3 L 471.1,353.6 L 478.3,354.0 L 479.7,356.0 L 489.7,356.0 L 490.0,354.0 L 495.2,352.1 L 496.2,349.2 L 500.0,347.1 L 508.4,352.9 L 513.5,351.9 L 518.5,344.7 L 524.0,339.2 L 523.1,333.2 L 520.7,330.3 L 526.7,329.8 L 527.4,327.5 L 532.1,328.2 L 530.9,335.6 L 532.1,342.8 L 537.2,346.7 L 538.4,350.2 L 538.2,355.2 L 539.6,355.4 L 539.7,363.2 L 538.3,366.2 L 532.9,366.5 L 529.5,372.2 L 535.7,372.9 L 540.8,377.7 L 542.5,381.7 L 547.1,384.1 L 553.0,394.9 L 546.2,401.5 L 540.0,407.5 L 533.9,412.1 L 526.9,412.1 L 518.8,414.4 L 512.5,412.2 L 508.3,414.9 Z" fill="rgba(255,255,255,0.13)" stroke="rgba(255,255,255,0.30)" stroke-width="0.8" stroke-linejoin="round" fill-rule="evenodd"/>
  <!-- Lake Victoria region marker -->
  <circle cx="530" cy="460" r="5" fill="#e8913a" filter="url(#glow)"/>
  <circle cx="530" cy="460" r="2.5" fill="#fff" opacity="0.7"/>
  <text x="485" y="448" fill="rgba(255,255,255,0.7)" font-family="sans-serif" font-size="8" font-weight="700" letter-spacing="1.2">LAKE VICTORIA</text>
  <text x="500" y="478" fill="rgba(255,255,255,0.45)" font-family="sans-serif" font-size="7" letter-spacing="1">REGION</text>
</svg>